<mxfile host="Electron" agent="Mozilla/5.0 (Windows NT 10.0; Win64; x64) AppleWebKit/537.36 (KHTML, like Gecko) draw.io/27.0.9 Chrome/134.0.6998.205 Electron/35.4.0 Safari/537.36" version="27.0.9">
  <diagram name="第 1 页" id="8TWieaRMOI8c3Zc7yjj-">
    <mxGraphModel dx="461" dy="333" grid="1" gridSize="10" guides="1" tooltips="1" connect="1" arrows="1" fold="1" page="1" pageScale="1" pageWidth="827" pageHeight="1169" math="0" shadow="0">
      <root>
        <mxCell id="0" />
        <mxCell id="1" parent="0" />
        <mxCell id="JczS5WRByCCDsciloYpp-1" value="DemuxThread" style="shape=umlLifeline;perimeter=lifelinePerimeter;whiteSpace=wrap;container=1;dropTarget=0;collapsible=0;recursiveResize=0;outlineConnect=0;portConstraint=eastwest;newEdgeStyle={&quot;edgeStyle&quot;:&quot;elbowEdgeStyle&quot;,&quot;elbow&quot;:&quot;vertical&quot;,&quot;curved&quot;:0,&quot;rounded&quot;:0};size=65;fillColor=#e1d5e7;strokeColor=#9673a6;" vertex="1" parent="1">
          <mxGeometry x="50" y="40" width="150" height="580" as="geometry" />
        </mxCell>
        <mxCell id="JczS5WRByCCDsciloYpp-2" value="PacketQueue" style="shape=umlLifeline;perimeter=lifelinePerimeter;whiteSpace=wrap;container=1;dropTarget=0;collapsible=0;recursiveResize=0;outlineConnect=0;portConstraint=eastwest;newEdgeStyle={&quot;edgeStyle&quot;:&quot;elbowEdgeStyle&quot;,&quot;elbow&quot;:&quot;vertical&quot;,&quot;curved&quot;:0,&quot;rounded&quot;:0};size=65;fillColor=#e1d5e7;strokeColor=#9673a6;" vertex="1" parent="1">
          <mxGeometry x="331" y="40" width="150" height="580" as="geometry" />
        </mxCell>
        <mxCell id="JczS5WRByCCDsciloYpp-3" value="" style="points=[];perimeter=orthogonalPerimeter;outlineConnect=0;targetShapes=umlLifeline;portConstraint=eastwest;newEdgeStyle={&quot;edgeStyle&quot;:&quot;elbowEdgeStyle&quot;,&quot;elbow&quot;:&quot;vertical&quot;,&quot;curved&quot;:0,&quot;rounded&quot;:0}" vertex="1" parent="JczS5WRByCCDsciloYpp-2">
          <mxGeometry x="70" y="107" width="10" height="110" as="geometry" />
        </mxCell>
        <mxCell id="JczS5WRByCCDsciloYpp-4" value="" style="points=[];perimeter=orthogonalPerimeter;outlineConnect=0;targetShapes=umlLifeline;portConstraint=eastwest;newEdgeStyle={&quot;edgeStyle&quot;:&quot;elbowEdgeStyle&quot;,&quot;elbow&quot;:&quot;vertical&quot;,&quot;curved&quot;:0,&quot;rounded&quot;:0}" vertex="1" parent="JczS5WRByCCDsciloYpp-2">
          <mxGeometry x="70" y="284" width="10" height="116" as="geometry" />
        </mxCell>
        <mxCell id="JczS5WRByCCDsciloYpp-5" value="" style="points=[];perimeter=orthogonalPerimeter;outlineConnect=0;targetShapes=umlLifeline;portConstraint=eastwest;newEdgeStyle={&quot;edgeStyle&quot;:&quot;elbowEdgeStyle&quot;,&quot;elbow&quot;:&quot;vertical&quot;,&quot;curved&quot;:0,&quot;rounded&quot;:0}" vertex="1" parent="JczS5WRByCCDsciloYpp-2">
          <mxGeometry x="70" y="452" width="10" height="110" as="geometry" />
        </mxCell>
        <mxCell id="JczS5WRByCCDsciloYpp-6" value="DecodeThread" style="shape=umlLifeline;perimeter=lifelinePerimeter;whiteSpace=wrap;container=1;dropTarget=0;collapsible=0;recursiveResize=0;outlineConnect=0;portConstraint=eastwest;newEdgeStyle={&quot;edgeStyle&quot;:&quot;elbowEdgeStyle&quot;,&quot;elbow&quot;:&quot;vertical&quot;,&quot;curved&quot;:0,&quot;rounded&quot;:0};size=65;fillColor=#e1d5e7;strokeColor=#9673a6;" vertex="1" parent="1">
          <mxGeometry x="531" y="40" width="150" height="580" as="geometry" />
        </mxCell>
        <mxCell id="JczS5WRByCCDsciloYpp-7" value="par" style="shape=umlFrame;dashed=1;pointerEvents=0;dropTarget=0;strokeColor=#B3B3B3;height=20;width=30;fontStyle=1;strokeWidth=3;" vertex="1" parent="1">
          <mxGeometry x="114" y="267" width="503" height="183" as="geometry" />
        </mxCell>
        <mxCell id="JczS5WRByCCDsciloYpp-8" value="" style="text;strokeColor=none;fillColor=none;align=center;verticalAlign=middle;whiteSpace=wrap;" vertex="1" parent="JczS5WRByCCDsciloYpp-7">
          <mxGeometry x="30" width="473" height="20" as="geometry" />
        </mxCell>
        <mxCell id="JczS5WRByCCDsciloYpp-9" value="push(packet)" style="verticalAlign=bottom;edgeStyle=elbowEdgeStyle;elbow=vertical;curved=0;rounded=0;endArrow=block;" edge="1" parent="1" source="JczS5WRByCCDsciloYpp-1" target="JczS5WRByCCDsciloYpp-3">
          <mxGeometry relative="1" as="geometry">
            <Array as="points">
              <mxPoint x="272" y="147" />
            </Array>
          </mxGeometry>
        </mxCell>
        <mxCell id="JczS5WRByCCDsciloYpp-10" value="1" style="ellipse;aspect=fixed;fillColor=#000000;align=center;fontColor=#FFFFFF;" vertex="1" parent="JczS5WRByCCDsciloYpp-9">
          <mxGeometry width="14" height="14" relative="1" as="geometry">
            <mxPoint x="-146" y="-7" as="offset" />
          </mxGeometry>
        </mxCell>
        <mxCell id="JczS5WRByCCDsciloYpp-11" value="开始等待 (wait), 并自动释放锁" style="verticalAlign=bottom;edgeStyle=elbowEdgeStyle;elbow=vertical;curved=0;rounded=0;dashed=1;dashPattern=2 3;endArrow=block;" edge="1" parent="1" source="JczS5WRByCCDsciloYpp-3" target="JczS5WRByCCDsciloYpp-1">
          <mxGeometry relative="1" as="geometry">
            <Array as="points">
              <mxPoint x="275" y="247" />
            </Array>
          </mxGeometry>
        </mxCell>
        <mxCell id="JczS5WRByCCDsciloYpp-12" value="2" style="ellipse;aspect=fixed;fillColor=#000000;align=center;fontColor=#FFFFFF;" vertex="1" parent="JczS5WRByCCDsciloYpp-11">
          <mxGeometry width="14" height="14" relative="1" as="geometry">
            <mxPoint x="132" y="-7" as="offset" />
          </mxGeometry>
        </mxCell>
        <mxCell id="JczS5WRByCCDsciloYpp-13" value="pop()" style="verticalAlign=bottom;edgeStyle=elbowEdgeStyle;elbow=vertical;curved=0;rounded=0;endArrow=block;" edge="1" parent="1" source="JczS5WRByCCDsciloYpp-6" target="JczS5WRByCCDsciloYpp-4">
          <mxGeometry relative="1" as="geometry">
            <Array as="points">
              <mxPoint x="520" y="324" />
            </Array>
          </mxGeometry>
        </mxCell>
        <mxCell id="JczS5WRByCCDsciloYpp-14" value="3" style="ellipse;aspect=fixed;fillColor=#000000;align=center;fontColor=#FFFFFF;" vertex="1" parent="JczS5WRByCCDsciloYpp-13">
          <mxGeometry width="14" height="14" relative="1" as="geometry">
            <mxPoint x="91.5" y="-7" as="offset" />
          </mxGeometry>
        </mxCell>
        <mxCell id="JczS5WRByCCDsciloYpp-15" value="返回一个 packet" style="verticalAlign=bottom;edgeStyle=elbowEdgeStyle;elbow=vertical;curved=0;rounded=0;dashed=1;dashPattern=2 3;endArrow=block;" edge="1" parent="1" source="JczS5WRByCCDsciloYpp-4" target="JczS5WRByCCDsciloYpp-6">
          <mxGeometry relative="1" as="geometry">
            <Array as="points">
              <mxPoint x="517" y="376" />
            </Array>
          </mxGeometry>
        </mxCell>
        <mxCell id="JczS5WRByCCDsciloYpp-16" value="4" style="ellipse;aspect=fixed;fillColor=#000000;align=center;fontColor=#FFFFFF;" vertex="1" parent="JczS5WRByCCDsciloYpp-15">
          <mxGeometry width="14" height="14" relative="1" as="geometry">
            <mxPoint x="-105.5" y="-7" as="offset" />
          </mxGeometry>
        </mxCell>
        <mxCell id="JczS5WRByCCDsciloYpp-17" value="notify()" style="verticalAlign=bottom;edgeStyle=elbowEdgeStyle;elbow=vertical;curved=0;rounded=0;endArrow=block;" edge="1" parent="1" source="JczS5WRByCCDsciloYpp-4" target="JczS5WRByCCDsciloYpp-1">
          <mxGeometry relative="1" as="geometry">
            <Array as="points">
              <mxPoint x="275" y="430" />
            </Array>
          </mxGeometry>
        </mxCell>
        <mxCell id="JczS5WRByCCDsciloYpp-18" value="5" style="ellipse;aspect=fixed;fillColor=#000000;align=center;fontColor=#FFFFFF;" vertex="1" parent="JczS5WRByCCDsciloYpp-17">
          <mxGeometry width="14" height="14" relative="1" as="geometry">
            <mxPoint x="132" y="-7" as="offset" />
          </mxGeometry>
        </mxCell>
        <mxCell id="JczS5WRByCCDsciloYpp-19" value="被唤醒, 重新加锁并检查" style="verticalAlign=bottom;edgeStyle=elbowEdgeStyle;elbow=vertical;curved=0;rounded=0;dashed=1;dashPattern=2 3;endArrow=block;" edge="1" parent="1" source="JczS5WRByCCDsciloYpp-1" target="JczS5WRByCCDsciloYpp-5">
          <mxGeometry relative="1" as="geometry">
            <Array as="points">
              <mxPoint x="272" y="492" />
            </Array>
          </mxGeometry>
        </mxCell>
        <mxCell id="JczS5WRByCCDsciloYpp-20" value="6" style="ellipse;aspect=fixed;fillColor=#000000;align=center;fontColor=#FFFFFF;" vertex="1" parent="JczS5WRByCCDsciloYpp-19">
          <mxGeometry width="14" height="14" relative="1" as="geometry">
            <mxPoint x="-146" y="-7" as="offset" />
          </mxGeometry>
        </mxCell>
        <mxCell id="JczS5WRByCCDsciloYpp-21" value="push() 执行成功" style="verticalAlign=bottom;edgeStyle=elbowEdgeStyle;elbow=vertical;curved=0;rounded=0;dashed=1;dashPattern=2 3;endArrow=block;" edge="1" parent="1" source="JczS5WRByCCDsciloYpp-5" target="JczS5WRByCCDsciloYpp-1">
          <mxGeometry relative="1" as="geometry">
            <Array as="points">
              <mxPoint x="275" y="592" />
            </Array>
          </mxGeometry>
        </mxCell>
        <mxCell id="JczS5WRByCCDsciloYpp-22" value="7" style="ellipse;aspect=fixed;fillColor=#000000;align=center;fontColor=#FFFFFF;" vertex="1" parent="JczS5WRByCCDsciloYpp-21">
          <mxGeometry width="14" height="14" relative="1" as="geometry">
            <mxPoint x="132" y="-7" as="offset" />
          </mxGeometry>
        </mxCell>
        <mxCell id="JczS5WRByCCDsciloYpp-23" value="加锁后检查，发现队列已满" style="fillColor=#ffff88;strokeColor=#9E916F;" vertex="1" parent="1">
          <mxGeometry x="300" y="167" width="213" height="48" as="geometry" />
        </mxCell>
        <mxCell id="JczS5WRByCCDsciloYpp-24" value="检查通过, 推入新packet" style="fillColor=#ffff88;strokeColor=#9E916F;" vertex="1" parent="1">
          <mxGeometry x="313" y="512" width="187" height="48" as="geometry" />
        </mxCell>
        <mxCell id="JczS5WRByCCDsciloYpp-25" value="DemuxThread" style="rounded=0;whiteSpace=wrap;html=1;fillColor=#e1d5e7;strokeColor=#9673a6;" vertex="1" parent="1">
          <mxGeometry x="50" y="620" width="150" height="60" as="geometry" />
        </mxCell>
        <mxCell id="JczS5WRByCCDsciloYpp-26" value="PacketQueue" style="rounded=0;whiteSpace=wrap;html=1;fillColor=#e1d5e7;strokeColor=#9673a6;" vertex="1" parent="1">
          <mxGeometry x="331" y="620" width="150" height="60" as="geometry" />
        </mxCell>
        <mxCell id="JczS5WRByCCDsciloYpp-27" value="DecodeThread" style="rounded=0;whiteSpace=wrap;html=1;fillColor=#e1d5e7;strokeColor=#9673a6;" vertex="1" parent="1">
          <mxGeometry x="531" y="620" width="150" height="60" as="geometry" />
        </mxCell>
      </root>
    </mxGraphModel>
  </diagram>
</mxfile>
